# xmcd
#
# Track frame offsets:
#	150
#	21847
#	60295
#	96477
#	181019
#	203984
#
# Disc length: 4238 seconds
#
# Revision: 0
# Processed by: cddbd v1.5.2PL0 Copyright (c) Steve Scherf et al.
# Submitted via: audiograbber 1.83.01
#
DISCID=47108c06
DTITLE=Grateful Dead - 94-07-23 Soldier Field, Chicago IL
DYEAR=1900
DGENRE=
TTITLE0=Lucy In The Sky With Diamonds
TTITLE1=Samba In The Rain
TTITLE2=Playing In The Band
TTITLE3=Terrapin Station
TTITLE4=Drums
TTITLE5=Space
EXTD=
EXTT0=
EXTT1=
EXTT2=
EXTT3=
EXTT4=
EXTT5=
PLAYORDER=
